<svg class="h-screen w-full scale-[5] md:scale-[1.8] xl:scale-125" viewBox="0 0 1729 1118" fill="none" xmlns="http://www.w3.org/2000/svg"><path d="M-37.8925 13.9889H1767.29" stroke="#575596" stroke-width="0.5" stroke-dasharray="1 4"></path><path d="M-37.8925 51.6016H1767.29" stroke="#575596" stroke-width="0.5" stroke-dasharray="1 4"></path><path d="M-37.8925 89.2149H1767.29" stroke="#575596" stroke-width="0.5" stroke-dasharray="1 4"></path><path d="M-37.8925 126.828H1767.29" stroke="#575596" stroke-width="0.5" stroke-dasharray="1 4"></path><path d="M-37.8925 164.441H1767.29" stroke="#575596" stroke-width="0.5" stroke-dasharray="1 4"></path><path d="M-37.8925 202.054H1767.29" stroke="#575596" stroke-width="0.5" stroke-dasharray="1 4"></path><path d="M-37.8925 239.667H1767.29" stroke="#575596" stroke-width="0.5" stroke-dasharray="1 4"></path><path d="M-37.8925 277.28H1767.29" stroke="#575596" stroke-width="0.5" stroke-dasharray="1 4"></path><path d="M-37.8925 314.893H1767.29" stroke="#575596" stroke-width="0.5" stroke-dasharray="1 4"></path><path d="M-37.8925 352.506H1767.29" stroke="#575596" stroke-width="0.5" stroke-dasharray="1 4"></path><path d="M-37.8925 390.119H1767.29" stroke="#575596" stroke-width="0.5" stroke-dasharray="1 4"></path><path d="M-37.8925 427.732H1767.29" stroke="#575596" stroke-width="0.5" stroke-dasharray="1 4"></path><path d="M-37.8925 465.345H1767.29" stroke="#575596" stroke-width="0.5" stroke-dasharray="1 4"></path><path d="M-37.8925 502.958H1767.29" stroke="#575596" stroke-width="0.5" stroke-dasharray="1 4"></path><path d="M-37.8925 540.571H1767.29" stroke="#575596" stroke-width="0.5" stroke-dasharray="1 4"></path><path d="M-37.8925 578.184H1767.29" stroke="#575596" stroke-width="0.5" stroke-dasharray="1 4"></path><path d="M-37.8925 615.797H1767.29" stroke="#575596" stroke-width="0.5" stroke-dasharray="1 4"></path><path d="M-37.8925 653.41H1767.29" stroke="#575596" stroke-width="0.5" stroke-dasharray="1 4"></path><path d="M-37.8925 691.023H1767.29" stroke="#575596" stroke-width="0.5" stroke-dasharray="1 4"></path><path d="M-37.8925 728.636H1767.29" stroke="#575596" stroke-width="0.5" stroke-dasharray="1 4"></path><path d="M-37.8925 766.249H1767.29" stroke="#575596" stroke-width="0.5" stroke-dasharray="1 4"></path><path d="M-37.8925 803.862H1767.29" stroke="#575596" stroke-width="0.5" stroke-dasharray="1 4"></path><path d="M-37.8925 841.475H1767.29" stroke="#575596" stroke-width="0.5" stroke-dasharray="1 4"></path><path d="M-37.8925 879.088H1767.29" stroke="#575596" stroke-width="0.5" stroke-dasharray="1 4"></path><path d="M-37.8925 916.702H1767.29" stroke="#575596" stroke-width="0.5" stroke-dasharray="1 4"></path><path d="M-37.8925 954.314H1767.29" stroke="#575596" stroke-width="0.5" stroke-dasharray="1 4"></path><path d="M-37.8925 991.927H1767.29" stroke="#575596" stroke-width="0.5" stroke-dasharray="1 4"></path><path d="M-37.8925 1029.54H1767.29" stroke="#575596" stroke-width="0.5" stroke-dasharray="1 4"></path><path d="M-37.8925 1067.15H1767.29" stroke="#575596" stroke-width="0.5" stroke-dasharray="1 4"></path><path d="M-37.8925 1104.77H1767.29" stroke="#575596" stroke-width="0.5" stroke-dasharray="1 4"></path><path d="M1353.68 -137L1353.68 1256" stroke="#575596" stroke-width="0.5" stroke-dasharray="1 4"></path><path d="M1316.07 -137L1316.07 1256" stroke="#575596" stroke-width="0.5" stroke-dasharray="1 4"></path><path d="M1278.46 -137L1278.46 1256" stroke="#575596" stroke-width="0.5" stroke-dasharray="1 4"></path><path d="M1240.84 -137L1240.84 1256" stroke="#575596" stroke-width="0.5" stroke-dasharray="1 4"></path><path d="M1203.23 -137L1203.23 1256" stroke="#575596" stroke-width="0.5" stroke-dasharray="1 4"></path><path d="M1165.62 -137L1165.62 1256" stroke="#575596" stroke-width="0.5" stroke-dasharray="1 4"></path><path d="M1128 -137L1128 1256" stroke="#575596" stroke-width="0.5" stroke-dasharray="1 4"></path><path d="M1090.39 -137L1090.39 1256" stroke="#575596" stroke-width="0.5" stroke-dasharray="1 4"></path><path d="M1052.78 -137L1052.78 1256" stroke="#575596" stroke-width="0.5" stroke-dasharray="1 4"></path><path d="M1015.16 -137L1015.16 1256" stroke="#575596" stroke-width="0.5" stroke-dasharray="1 4"></path><path d="M977.551 -137L977.551 1256" stroke="#575596" stroke-width="0.5" stroke-dasharray="1 4"></path><path d="M939.938 -137L939.938 1256" stroke="#575596" stroke-width="0.5" stroke-dasharray="1 4"></path><path d="M902.325 -137L902.325 1256" stroke="#575596" stroke-width="0.5" stroke-dasharray="1 4"></path><path d="M864.712 -137L864.712 1256" stroke="#575596" stroke-width="0.5" stroke-dasharray="1 4"></path><path d="M827.099 -137L827.099 1256" stroke="#575596" stroke-width="0.5" stroke-dasharray="1 4"></path><path d="M789.486 -137L789.486 1256" stroke="#575596" stroke-width="0.5" stroke-dasharray="1 4"></path><path d="M751.873 -137L751.873 1256" stroke="#575596" stroke-width="0.5" stroke-dasharray="1 4"></path><path d="M714.26 -137L714.26 1256" stroke="#575596" stroke-width="0.5" stroke-dasharray="1 4"></path><path d="M676.647 -137L676.647 1256" stroke="#575596" stroke-width="0.5" stroke-dasharray="1 4"></path><path d="M639.034 -137L639.034 1256" stroke="#575596" stroke-width="0.5" stroke-dasharray="1 4"></path><path d="M601.421 -137L601.421 1256" stroke="#575596" stroke-width="0.5" stroke-dasharray="1 4"></path><path d="M563.808 -137L563.808 1256" stroke="#575596" stroke-width="0.5" stroke-dasharray="1 4"></path><path d="M526.195 -137L526.195 1256" stroke="#575596" stroke-width="0.5" stroke-dasharray="1 4"></path><path d="M488.582 -137L488.582 1256" stroke="#575596" stroke-width="0.5" stroke-dasharray="1 4"></path><path d="M450.969 -137L450.969 1256" stroke="#575596" stroke-width="0.5" stroke-dasharray="1 4"></path><path d="M413.356 -137L413.356 1256" stroke="#575596" stroke-width="0.5" stroke-dasharray="1 4"></path><path d="M375.743 -137L375.743 1256" stroke="#575596" stroke-width="0.5" stroke-dasharray="1 4"></path><path d="M338.13 -137L338.13 1256" stroke="#575596" stroke-width="0.5" stroke-dasharray="1 4"></path><path d="M300.517 -137L300.517 1256" stroke="#575596" stroke-width="0.5" stroke-dasharray="1 4"></path><path d="M262.904 -137L262.904 1256" stroke="#575596" stroke-width="0.5" stroke-dasharray="1 4"></path><path d="M225.291 -137L225.291 1256" stroke="#575596" stroke-width="0.5" stroke-dasharray="1 4"></path><path d="M187.678 -137L187.678 1256" stroke="#575596" stroke-width="0.5" stroke-dasharray="1 4"></path><path d="M150.065 -137L150.065 1256" stroke="#575596" stroke-width="0.5" stroke-dasharray="1 4"></path><path d="M112.452 -137L112.452 1256" stroke="#575596" stroke-width="0.5" stroke-dasharray="1 4"></path><path d="M74.8389 -137L74.8389 1256" stroke="#575596" stroke-width="0.5" stroke-dasharray="1 4"></path><path d="M37.226 -137L37.2259 1256" stroke="#575596" stroke-width="0.5" stroke-dasharray="1 4"></path><path d="M1729.1 -136.805L1729.1 1255.95" stroke="#575596" stroke-width="0.5" stroke-dasharray="1 4"></path><path d="M1691.73 -136.805L1691.73 1255.95" stroke="#575596" stroke-width="0.5" stroke-dasharray="1 4"></path><path d="M1653.9 -136.805L1653.9 1255.95" stroke="#575596" stroke-width="0.5" stroke-dasharray="1 4"></path><path d="M1616.53 -136.805L1616.53 1255.95" stroke="#575596" stroke-width="0.5" stroke-dasharray="1 4"></path><path d="M1578.7 -136.805L1578.7 1255.95" stroke="#575596" stroke-width="0.5" stroke-dasharray="1 4"></path><path d="M1541.33 -136.805L1541.33 1255.95" stroke="#575596" stroke-width="0.5" stroke-dasharray="1 4"></path><path d="M1503.5 -136.805L1503.5 1255.95" stroke="#575596" stroke-width="0.5" stroke-dasharray="1 4"></path><path d="M1466.13 -136.805L1466.13 1255.95" stroke="#575596" stroke-width="0.5" stroke-dasharray="1 4"></path><path d="M1428.3 -136.805L1428.3 1255.95" stroke="#575596" stroke-width="0.5" stroke-dasharray="1 4"></path><path d="M1390.93 -136.805L1390.93 1255.95" stroke="#575596" stroke-width="0.5" stroke-dasharray="1 4"></path></svg>