<?xml version="1.0" encoding="utf-8"?>
<!-- Generator: Adobe Illustrator 26.3.1, SVG Export Plug-In . SVG Version: 6.00 Build 0)  -->
<svg version="1.1" id="Layer_1" xmlns="http://www.w3.org/2000/svg" xmlns:xlink="http://www.w3.org/1999/xlink" x="0px" y="0px"
	 viewBox="0 0 869.8 457.5" style="enable-background:new 0 0 869.8 457.5;" xml:space="preserve">
<style type="text/css">
	.st0{fill:#FFFFFF;}
</style>
<path class="st0" d="M110.8,66.1c-1.8-1.7-3.8-3.2-6-4.4c-1.5-0.8-3-1.4-4.5-2c0.8-0.5,1.7-1,2.5-1.5c1.7-1.2,3.2-2.6,4.5-4.3
	c1.4-1.8,2.5-3.7,3.2-5.9c0.8-2.5,1.3-5.1,1.2-7.7c0-3.2-0.6-6.3-2-9.2c-1.4-2.8-3.4-5.2-5.9-7c-2.7-2-5.8-3.5-9-4.4
	c-3.8-1.1-7.7-1.7-11.7-1.6H47.4c-0.6,0-1.2,0.5-1.2,1.1c0,0,0,0,0,0v84.3c0,0.6,0.5,1.1,1.1,1.2c0,0,0,0,0,0h37.4
	c4.3,0,8.6-0.5,12.8-1.6c3.6-1,7-2.5,10-4.7c2.8-2,5-4.6,6.5-7.7c1.6-3.2,2.3-6.7,2.3-10.3c0-2.8-0.5-5.6-1.5-8.2
	C113.9,70,112.5,67.9,110.8,66.1z M99.6,90.2c-3.5,2.5-8.3,3.8-14.5,3.8H58V66.4h25.4c7.1,0,12.5,1.2,16.1,3.6
	c3.3,2.1,5.3,5.9,5.1,9.9C104.8,84,102.9,87.9,99.6,90.2z M99.9,41.6c0,4.6-1.6,8-4.9,10.4s-7.8,3.7-13.3,3.7H58V28.9h24.4
	c5.7,0,10.1,1.2,13.1,3.5C98.5,34.5,100.1,38,99.9,41.6z"/>
<path class="st0" d="M200.8,18.1h-9.5c-0.6,0-1.1,0.5-1.1,1.1v49c0,8.9-2.2,15.6-6.5,20s-10.3,6.6-17.7,6.6c-7.7,0-13.8-2.3-18.1-7
	s-6.5-11.5-6.5-20.3V19.3c0-0.6-0.5-1.1-1.1-1.1h-9.5c-0.6,0-1.2,0.5-1.2,1.1v49c-0.1,5.5,0.8,11,2.6,16.2c1.6,4.5,4.1,8.5,7.4,11.9
	c3.3,3.2,7.2,5.7,11.5,7.2c9.5,3.2,19.9,3.2,29.4,0c4.3-1.5,8.3-4,11.5-7.3c3.3-3.4,5.9-7.6,7.4-12.1c1.8-5.4,2.7-11,2.6-16.7V19.3
	C201.9,18.6,201.4,18.1,200.8,18.1z"/>
<path class="st0" d="M224.1,18.1h9.5c0.6,0,1.1,0.5,1.1,1.1v84.3c0,0.6-0.5,1.2-1.1,1.2h-9.5c-0.6,0-1.1-0.5-1.1-1.2V19.3
	C223,18.6,223.5,18.1,224.1,18.1z"/>
<path class="st0" d="M315.3,93.6H269V19.3c0-0.6-0.5-1.1-1.1-1.1h-9.5c-0.6,0-1.2,0.5-1.2,1.1v84.3c0,0.6,0.5,1.2,1.1,1.2
	c0,0,0,0,0,0h57c0.6,0,1.1-0.5,1.1-1.2v-8.8C316.4,94.1,315.9,93.6,315.3,93.6z"/>
<path class="st0" d="M392.8,30.5c-4.2-4-9.2-7-14.6-9.1c-5.9-2.2-12.2-3.3-18.5-3.3h-29.3c-0.6,0-1.1,0.5-1.1,1.1v84.3
	c0,0.6,0.5,1.2,1.1,1.2h29.3c6.3,0.1,12.6-1.1,18.5-3.3c5.4-2.1,10.4-5.2,14.6-9.1c4.1-3.9,7.3-8.6,9.5-13.8
	c2.2-5.4,3.4-11.2,3.3-17.1c0-5.9-1.1-11.7-3.3-17.1C400.1,39,396.9,34.4,392.8,30.5z M359.7,93.6h-18.6V29.2h18.6
	c4.8-0.1,9.5,0.8,14,2.5c4,1.5,7.6,3.9,10.6,6.9c2.9,2.9,5.2,6.4,6.7,10.3c1.6,4,2.4,8.3,2.4,12.7c0,4.3-0.8,8.7-2.4,12.7
	c-1.5,3.8-3.8,7.3-6.7,10.2c-3,3-6.6,5.3-10.6,6.8C369.2,92.8,364.5,93.7,359.7,93.6z"/>
<path class="st0" d="M461.6,18.1h9.5c0.6,0,1.1,0.5,1.1,1.1v84.3c0,0.6-0.5,1.2-1.1,1.2h-9.5c-0.6,0-1.1-0.5-1.1-1.2V19.3
	C460.4,18.6,460.9,18.1,461.6,18.1z"/>
<path class="st0" d="M558.2,18.1h-66.1c-0.6,0-1.1,0.5-1.1,1.1v8.8c0,0.6,0.5,1.1,1.1,1.1c0,0,0,0,0,0h27.1v74.3
	c0,0.6,0.5,1.2,1.2,1.2l0,0h9.5c0.6,0,1.2-0.5,1.2-1.1c0,0,0,0,0,0V29.2h27.1c0.6,0,1.2-0.5,1.2-1.1c0,0,0,0,0,0v-8.8
	C559.4,18.6,558.9,18.1,558.2,18.1z"/>
<path class="st0" d="M683.6,30c-3.9-4.1-8.7-7.4-13.9-9.7c-11.5-4.8-24.5-4.8-36,0.1c-5.3,2.3-10,5.7-14,9.8c-3.9,4.1-6.9,9-9,14.3
	c-2.1,5.4-3.2,11.2-3.2,17.1c0,5.8,1,11.6,3.2,17.1c4.1,10.7,12.3,19.4,22.9,23.9c11.5,4.8,24.5,4.8,36-0.1c5.3-2.3,10-5.7,14-9.8
	c3.9-4.1,6.9-9,9-14.3c2.1-5.4,3.2-11.2,3.2-17.1c0-5.8-1-11.6-3.2-17.1C690.5,38.9,687.4,34.1,683.6,30z M651.7,95.1
	c-4.4,0-8.8-0.9-12.8-2.7c-7.8-3.5-13.8-9.9-16.8-17.9c-1.6-4.2-2.4-8.7-2.4-13.2c0-4.5,0.8-8.9,2.4-13.1c1.5-3.9,3.7-7.5,6.6-10.7
	c2.8-3,6.2-5.5,10-7.1c4-1.8,8.4-2.7,12.8-2.6c4.4,0,8.8,0.9,12.8,2.7c7.8,3.5,13.9,9.9,16.9,17.9c3.2,8.5,3.2,17.8,0,26.3
	c-1.5,3.9-3.7,7.5-6.6,10.7c-2.8,3-6.2,5.5-10,7.1C660.5,94.2,656.1,95.1,651.7,95.1z"/>
<path class="st0" d="M783.5,18.1h-9.3c-0.6,0-1.1,0.5-1.2,1.1v64.2L722,18.6c-0.2-0.3-0.5-0.4-0.9-0.4h-8.9c-0.6,0-1.2,0.5-1.2,1.1
	c0,0,0,0,0,0v84.3c0,0.6,0.5,1.1,1.1,1.2c0,0,0,0,0,0h9.3c0.6,0,1.2-0.5,1.2-1.1c0,0,0,0,0,0V37.8l52.4,66.5
	c0.2,0.3,0.6,0.4,0.9,0.4h7.6c0.6,0,1.1-0.5,1.2-1.1c0,0,0,0,0,0V19.3C784.6,18.6,784.1,18.1,783.5,18.1z"/>
<path class="st0" d="M220.2,293.9l112.5-142.3l-52,0.1h-14.5c-13.7,0.2-25.6,6.6-35.7,19.4l-55.8,71.1l-56-70.9
	c-10.2-12.9-22.1-19.3-35.7-19.3l-43.9,0.1c-7.5,0-11.2,3.1-11.2,9.4c0,3.1,1.4,6.5,4.3,10l97,122.7L26.6,425.2
	c-2.9,3.7-4.3,7-4.3,10c0.8,6.1,4.6,9.2,11.4,9.2l43.5,0c13.6,0,25.4-6.4,35.5-19.2l62.1-79.4l62.3,79.3
	c10.1,12.8,21.9,19.1,35.5,19.1l65.9-0.1L220.2,293.9z M791.1,443.6l45.3-57.8l-111.5,0.1c-36.6,0.1-61.5-6.6-74.7-19.9
	s-19.8-36.1-19.9-68.4c0-32.3,6.6-55.2,19.7-68.6s38-20.1,74.7-20.2l117.3-0.1L796.3,151l-73.9,0.1c-59,0.1-102,11.9-128.8,35.6
	c-12.2,10.8-21.5,24.5-28.2,40.8c7.4,20,11.1,43.4,11.1,70.2s-3.6,50.2-11,70.2c6.7,16.3,16,30,28.3,40.7
	c26.9,23.5,69.8,35.2,128.9,35.1L791.1,443.6z M558.8,247.8c-1.7-6.9-3.9-13.7-6.7-20.3c-6.7-16.3-16-30-28.3-40.8
	C497,163.2,454,151.4,395,151.5h-46.7l-45.7,57.8l90.1-0.1c36.6,0,61.5,6.6,74.7,20c13.2,13.4,19.8,36.2,19.9,68.5
	c0,32.3-6.5,55.1-19.7,68.5c-13.2,13.3-38.1,20-74.7,20.1l-84.3,0.1l45.4,57.7l41.2,0c59-0.1,102-11.9,128.8-35.4
	c12.2-10.8,21.5-24.4,28.2-40.8c2.7-6.6,4.9-13.4,6.6-20.3c3.6-14.8,5.4-31.5,5.4-49.9C564.3,279.3,562.5,262.6,558.8,247.8z"/>
<path class="st0" d="M236.4,294.1l58.5,74.1l-0.2-148.3L236.4,294.1z"/>
<polygon class="st0" points="207.5,130 141.8,130 174.6,171.8 "/>
</svg>
