<svg class="h-[70px] w-[70px]" width="91" height="91" viewBox="20 20 51 51" fill="none" xmlns="http://www.w3.org/2000/svg"><path d="M65.0375 45.4567C65.0395 41.6809 63.9418 37.9861 61.8784 34.8239L69.5462 27.1555L63.7876 21.3956L56.1247 29.0639C52.9616 27.0012 49.2669 25.903 45.4906 25.903C41.7144 25.903 38.0197 27.0012 34.8566 29.0639L27.1819 21.3956L21.4219 27.1555L29.0904 34.8232C27.0276 37.9862 25.9294 41.6809 25.9294 45.4571C25.9294 49.2332 27.0276 52.9279 29.0904 56.0909L21.4219 63.76L27.1819 69.5199L34.8504 61.8516C38.0135 63.9143 41.7082 65.0125 45.4844 65.0125C49.2606 65.0125 52.9553 63.9143 56.1184 61.8516L63.7869 69.5199L69.5462 63.76L61.8784 56.0978C63.9433 52.9332 65.0411 49.2354 65.0375 45.4567ZM34.0776 45.4567C34.0746 43.7549 34.4524 42.0741 35.1833 40.5373C35.9142 39.0005 36.9797 37.6466 38.3017 36.5751C39.6237 35.5035 41.1688 34.7412 42.8236 34.3442C44.4784 33.9473 46.2011 33.9255 47.8655 34.2807C49.5298 34.6359 51.0935 35.3589 52.4421 36.3968C53.7908 37.4348 54.89 38.7613 55.6595 40.2792C56.4289 41.7971 56.8489 43.4679 56.8888 45.1692C56.9286 46.8705 56.5874 48.5592 55.8899 50.1115L48.3655 42.5767L42.6034 48.3381L50.1306 55.8631C48.395 56.6435 46.4915 56.9764 44.5942 56.8313C42.6968 56.6863 40.866 56.0679 39.2692 55.0328C37.6725 53.9977 36.3606 52.5789 35.4537 50.906C34.5468 49.2331 34.0736 47.3596 34.0776 45.4567Z" fill="#4CBBFD"></path></svg>